<?xml version="1.0" encoding="UTF-8" standalone="no"?>
<!DOCTYPE svg PUBLIC "-//W3C//DTD SVG 1.1//EN" "http://www.w3.org/Graphics/SVG/1.1/DTD/svg11.dtd">
<svg width="100%" height="100%" viewBox="0 0 197 197" version="1.1" xmlns="http://www.w3.org/2000/svg" xmlns:xlink="http://www.w3.org/1999/xlink" xml:space="preserve" xmlns:serif="http://www.serif.com/" style="fill-rule:evenodd;clip-rule:evenodd;stroke-linejoin:round;stroke-miterlimit:2;">
    <g transform="matrix(1,0,0,1,-77.619,-0.89615)">
        <rect id="novnc" x="77.619" y="0.896" width="196.871" height="196.876" style="fill:none;"/>
        <clipPath id="_clip1">
            <rect id="novnc1" serif:id="novnc" x="77.619" y="0.896" width="196.871" height="196.876"/>
        </clipPath>
        <g clip-path="url(#_clip1)">
            <path d="M219.737,94.825C227.894,110.65 238.165,130.103 251.579,155.078C244.929,151.078 236.369,147.518 224.459,144.418C241.799,153.318 250.279,161.538 258.429,167.858C263.599,177.448 269.039,187.498 275.109,198.668C244.349,180.908 209.204,162.943 176.674,162.943C147.966,162.943 109.439,180.658 78.238,198.668C90.86,175.989 101.45,156.772 110.425,140.271C114.547,143.21 119.502,143.997 123.511,142.22C123.736,142.148 123.955,142.057 124.165,141.946L142.531,132.283C143.742,131.646 144.543,130.434 144.655,129.07C144.708,128.429 144.604,127.796 144.367,127.219L162.549,117.653C162.742,117.551 162.924,117.435 163.095,117.307C164.889,117.85 166.716,118.027 168.461,117.811L149.583,154.244C147.932,157.429 149.178,161.355 152.364,163.006C155.549,164.656 159.475,163.41 161.125,160.225L174.487,134.438L174.338,147.792C174.298,151.379 177.178,154.324 180.765,154.364C184.353,154.404 187.298,151.524 187.338,147.937L187.534,130.35L197.874,156.856C199.177,160.198 202.949,161.853 206.291,160.549C209.633,159.246 211.288,155.474 209.985,152.132L193.813,110.675C193.169,109.023 191.921,107.784 190.421,107.11L203.329,100.318C203.611,100.17 203.869,99.991 204.101,99.788C206.793,100.238 209.474,99.962 211.867,98.886C212.107,98.813 212.341,98.717 212.565,98.599L219.737,94.825ZM130.35,103.084C138.669,87.248 144.933,74.809 150.019,64.198C155.893,69.135 163.532,73.88 174.315,78.618L156.99,87.733C156.777,87.845 156.577,87.975 156.392,88.119C153.98,89.603 152.225,92.017 151.307,94.904C151.105,94.972 150.906,95.056 150.713,95.158L132.531,104.724C132.19,104.202 131.727,103.759 131.169,103.439C130.907,103.289 130.632,103.17 130.35,103.084ZM175.202,78.151C164.966,70.663 158.346,64.008 152.859,58.198C162.619,37.351 167.909,23.278 176.679,1.792L176.679,1.798C186.122,23.968 191.79,38.095 202.604,60.593L194.743,64.728C194.516,64.848 194.304,64.987 194.109,65.143C191.869,66.505 190.123,68.558 188.97,71.03C188.671,71.107 188.378,71.218 188.097,71.366L175.202,78.151Z" style="fill:rgb(23,147,209);"/>
            <g>
                <g id="Cavalletto">
                    <g transform="matrix(1,0,0,1,-0.383982,3.97235)">
                        <path d="M157.958,154.412C157.323,155.637 155.813,156.116 154.588,155.482C153.363,154.847 152.884,153.337 153.518,152.112L173.835,112.903C174.074,112.442 174.45,112.067 174.912,111.83L180.444,108.988C181.224,108.588 182.156,108.625 182.901,109.086C183.646,109.546 184.096,110.364 184.086,111.24L183.722,143.92C183.706,145.299 182.574,146.407 181.194,146.392C179.814,146.376 178.707,145.244 178.722,143.864L179.04,115.33L177.907,115.913L157.958,154.412Z" style="fill:rgb(8,51,70);"/>
                    </g>
                    <g transform="matrix(1,0,0,1,0.619,0.89615)">
                        <path d="M184.809,113.05C184.308,111.764 184.944,110.314 186.23,109.812C187.515,109.311 188.966,109.947 189.467,111.233L205.639,152.689C206.141,153.975 205.504,155.425 204.219,155.927C202.933,156.428 201.482,155.792 200.981,154.506L184.809,113.05Z" style="fill:rgb(8,51,70);"/>
                    </g>
                </g>
                <g id="Telescopio" transform="matrix(1.06356,-0.5596,0.5596,1.06356,-72.7935,140.909)">
                    <g id="Comp">
                        <path d="M270.254,50.928C264.994,50.928 260.725,56.554 260.725,63.483C260.725,70.412 264.994,76.038 270.254,76.038L270.254,76.078L226.525,76.078L226.525,50.888L270.254,50.888L270.254,50.928Z" style="fill:rgb(8,51,70);"/>
                        <path d="M266.72,71.464C268.985,70.698 270.69,67.414 270.69,63.483C270.69,59.552 268.985,56.268 266.72,55.502C267.717,54.541 268.925,53.928 270.254,53.928C271.586,53.928 272.797,54.545 273.795,55.509C275.651,57.302 276.783,60.222 276.783,63.483C276.783,66.744 275.651,69.664 273.795,71.457C272.797,72.421 271.586,73.038 270.254,73.038C268.925,73.038 267.717,72.425 266.72,71.464Z" style="fill:rgb(8,51,70);"/>
                        <g transform="matrix(1,0,0,1,-43.7288,0)">
                            <ellipse cx="270.254" cy="63.483" rx="9.529" ry="12.555" style="fill:rgb(8,51,70);"/>
                        </g>
                    </g>
                    <g id="Comp1" serif:id="Comp" transform="matrix(0.81637,0,0,0.81637,4.88275,11.6574)">
                        <path d="M262.351,50.888C259.343,53.671 257.375,58.277 257.375,63.483C257.375,68.689 259.343,73.295 262.351,76.078L226.525,76.078L226.525,50.888L262.351,50.888Z" style="fill:rgb(8,51,70);"/>
                        <g transform="matrix(1,0,0,1,-43.7288,0)">
                            <ellipse cx="270.254" cy="63.483" rx="9.529" ry="12.555" style="fill:rgb(8,51,70);"/>
                        </g>
                    </g>
                    <g id="Camera" transform="matrix(0.814958,0,0,0.814958,-39.9741,11.747)">
                        <path d="M226.525,76.038C221.266,76.038 216.996,70.412 216.996,63.483C216.996,56.554 221.266,50.928 226.525,50.928L226.525,50.888L247.714,50.888C247.705,50.907 247.696,50.927 247.687,50.946C242.666,51.297 238.671,56.78 238.671,63.483C238.671,70.186 242.666,75.669 247.687,76.02C247.696,76.039 247.705,76.059 247.714,76.078L226.525,76.078L226.525,76.038ZM223.085,64.445L234.034,64.445C234.711,64.445 235.261,63.895 235.261,63.218C235.261,62.54 234.711,61.991 234.034,61.991L223.085,61.991C222.407,61.991 221.857,62.54 221.857,63.218C221.857,63.895 222.407,64.445 223.085,64.445ZM224.162,59.099L235.111,59.099C235.789,59.099 236.338,58.549 236.338,57.871C236.338,57.194 235.789,56.644 235.111,56.644L224.162,56.644C223.485,56.644 222.935,57.194 222.935,57.871C222.935,58.549 223.485,59.099 224.162,59.099ZM224.284,69.946L235.233,69.946C235.91,69.946 236.46,69.396 236.46,68.719C236.46,68.042 235.91,67.492 235.233,67.492L224.284,67.492C223.607,67.492 223.057,68.042 223.057,68.719C223.057,69.396 223.607,69.946 224.284,69.946Z" style="fill:rgb(8,51,70);"/>
                    </g>
                    <g id="Comp2" serif:id="Comp" transform="matrix(0.575383,0,0,0.575383,32.2425,26.956)">
                        <path d="M260.817,50.888C258.369,54.113 256.854,58.567 256.854,63.483C256.854,68.399 258.369,72.853 260.817,76.078L226.525,76.078L226.525,50.888L260.817,50.888Z" style="fill:rgb(8,51,70);"/>
                        <g transform="matrix(1,0,0,1,-43.7288,0)">
                            <ellipse cx="270.254" cy="63.483" rx="9.529" ry="12.555" style="fill:rgb(8,51,70);"/>
                        </g>
                    </g>
                </g>
            </g>
        </g>
    </g>
</svg>
